Coordinates
version=1
nRows=12
nColumns=42
inDegrees=yes

Units are S.I. units (second, meters, Newtons, ...)
If the header above contains a line with 'inDegrees', this indicates whether rotational values are in degrees (yes) or radians (no).

endheader
time	pelvis_tilt	pelvis_list	pelvis_rotation	pelvis_tx	pelvis_ty	pelvis_tz	hip_flexion_r	hip_adduction_r	hip_rotation_r	knee_angle_r	knee_angle_r_beta	ankle_angle_r	subtalar_angle_r	mtp_angle_r	hip_flexion_l	hip_adduction_l	hip_rotation_l	knee_angle_l	knee_angle_l_beta	ankle_angle_l	subtalar_angle_l	mtp_angle_l	lumbar_extension	lumbar_bending	lumbar_rotation	sh_tx_r	sh_ty_r	sh_tz_r	sh_plane_elev_r	sh_elev_r	sh_axial_rot_r	elbow_flex_r	pro_sup_r	sh_tx_l	sh_ty_l	sh_tz_l	sh_plane_elev_l	sh_elev_l	sh_axial_rot_l	elbow_flex_l	pro_sup_l
      0.00000000	     -4.52805513	     -2.10197964	     -3.49197383	      0.31571680	      0.92677227	     -0.07958112	      2.47992003	     -1.33498425	     -3.47553880	      2.80712224	      0.04899353	     -3.19341141	    -13.94683733	     -5.18293718	      2.94798004	     -4.64249712	     -6.07583204	      6.46076427	      0.11276161	     11.99115847	     -7.53948642	     -5.18293718	     -0.08778605	      1.65019182	     -0.03568380	     -0.00102729	     -0.01756986	     -0.00525666	     12.43006175	      4.57600401	     -1.68850482	     25.88692703	     77.00322344	      0.00140453	     -0.01682253	     -0.00465330	     10.64614942	      4.40004788	     -1.17359938	     23.97033466	     71.75083794
      0.01694910	     -6.12613179	     -1.74668632	     -3.39336828	      0.31715271	      0.92545891	     -0.08004105	      4.35937498	     -1.63257383	     -4.16594276	      3.27280688	      0.05712126	      0.71548197	    -10.21860986	     -6.19035456	      4.86320459	     -4.06136650	     -7.07041242	      5.84330472	      0.10198491	     12.83745507	     -4.82555725	     -6.19035456	      2.39248795	      1.60081352	     -0.72107801	     -0.00233915	     -0.01718244	     -0.00547194	      5.40014722	      3.22958641	     -0.42365892	     25.83224073	     78.96056361	     -0.00157265	     -0.01623577	     -0.00492059	      2.89404576	      2.86672912	     -1.53971215	     23.67153220	     74.81975031
      0.03389830	     -6.11061029	     -0.92624003	     -3.47586763	      0.32169820	      0.92480683	     -0.07549681	      3.81139644	     -2.40731943	     -4.84660251	      2.29094138	      0.03998447	      1.68234948	     -8.46500037	     -6.22881547	      4.35289474	     -3.41551312	     -8.05182913	      5.17819326	      0.09037652	     12.55979011	     -3.15162939	     -6.22881547	      2.70667128	      0.35379929	     -0.99568542	     -0.00386307	     -0.01716237	     -0.00538847	      4.88175623	      2.56097218	     -0.97757402	     25.72499511	     78.71247775	     -0.00547810	     -0.01606451	     -0.00459369	      2.73960662	      3.38919295	     -1.63386380	     23.26618292	     74.85470246
      0.05084750	     -5.64333878	     -0.48871445	     -3.33531846	      0.32149349	      0.92568848	     -0.07490443	      2.93188073	     -2.85743170	     -5.33264856	      1.71765777	      0.02997878	      2.67516028	     -7.06199488	     -6.52880160	      3.16083476	     -2.95011090	     -8.57240493	      4.14462260	      0.07233731	     12.02566510	     -2.79082534	     -6.52880160	      2.34324058	     -0.42087073	     -1.06103487	     -0.00459829	     -0.01747504	     -0.00540620	      5.83860498	      2.34001740	     -0.71912451	     25.78670006	     75.52587100	     -0.00805012	     -0.01620022	     -0.00429410	      4.03135500	      4.01452334	     -0.92007538	     23.06790506	     72.66023590
      0.06779660	     -5.17350268	     -0.36731996	     -3.24745646	      0.32160050	      0.92640519	     -0.07528535	      2.08963447	     -2.98206572	     -5.50274146	      1.29608620	      0.02262097	      3.48322414	     -6.12825725	     -6.77006978	      2.13519795	     -2.79541999	     -8.49002668	      3.38420101	      0.05906545	     11.76470588	     -2.72472490	     -6.77006978	      1.91741457	     -0.66972999	     -1.08393299	     -0.00452638	     -0.01753483	     -0.00521300	      7.97662637	      2.40375533	     -0.90818697	     25.94355058	     72.84462655	     -0.00847085	     -0.01610156	     -0.00413574	      6.32014081	      4.47706713	     -1.14086046	     22.97159828	     70.76511251
      0.08474580	     -4.80650775	     -0.25097666	     -3.16087513	      0.32117502	      0.92702248	     -0.07475907	      1.44323699	     -3.05394416	     -5.36135002	      0.92793634	      0.01619554	      3.90550013	     -5.87235625	     -6.92795332	      1.49709510	     -2.62849852	     -8.59690888	      2.91912946	      0.05094842	     11.40057027	     -3.03308288	     -6.92795332	      1.66566890	     -0.88616033	     -1.34417281	     -0.00295284	     -0.01755251	     -0.00516847	      8.93172066	      2.30982052	     -0.22378412	     26.14669434	     71.23771749	     -0.00877852	     -0.01614654	     -0.00400305	      6.96083452	      4.63860191	     -0.99786847	     23.07525608	     69.41015007
      0.10169490	     -4.39672051	     -0.16630636	     -3.20812369	      0.32113825	      0.92769820	     -0.07507893	      0.88533785	     -3.15280002	     -5.47342269	      0.71636009	      0.01250284	      4.21972155	     -5.63367317	     -7.00221532	      0.88602308	     -2.50503891	     -8.74212809	      2.61303348	      0.04560604	     11.06462661	     -3.14780627	     -7.00221532	      1.32189015	     -1.02518874	     -1.25801672	     -0.00269724	     -0.01750850	     -0.00488435	     10.64242485	      2.47336841	     -0.17595076	     26.31777803	     70.52217502	     -0.00731650	     -0.01610557	     -0.00388333	      7.77176820	      4.68397737	     -1.31723457	     23.79785326	     68.72262399
      0.11864410	     -4.19587461	     -0.07427643	     -3.22028963	      0.32067728	      0.92793885	     -0.07444281	      0.60589171	     -3.23929254	     -5.28969488	      0.59011864	      0.01029951	      4.30965788	     -5.72547426	     -7.04106615	      0.60449460	     -2.40055435	     -8.85418452	      2.43926912	      0.04257328	     10.68063660	     -3.28225592	     -7.04106615	      1.21958189	     -1.12907799	     -1.59296835	     -0.00154341	     -0.01742466	     -0.00470827	     11.77625334	      2.53889545	     -0.41215006	     26.26261384	     69.83933719	     -0.00732449	     -0.01593982	     -0.00385031	      8.33701445	      4.63364449	     -1.77388741	     24.05598634	     67.96503568
      0.13559320	     -3.87995073	     -0.05421789	     -3.23804069	      0.32075201	      0.92867013	     -0.07473011	      0.24984429	     -3.31101851	     -5.31052611	      0.57204567	      0.00998408	      4.46296446	     -5.48682890	     -7.06557578	      0.24258677	     -2.37530522	     -8.97913808	      2.39318445	      0.04176895	     10.35322937	     -3.37902885	     -7.06557578	      0.92845875	     -1.14770421	     -1.67238628	     -0.00122758	     -0.01732840	     -0.00464433	     12.94582048	      2.84261609	      0.18062171	     26.31090439	     69.70175183	     -0.00650952	     -0.01566892	     -0.00383082	      9.14304848	      4.68402670	     -1.47417719	     24.18627720	     67.75388689
      0.15254240	     -3.89903358	     -0.07938038	     -3.17300897	      0.31939760	      0.92839949	     -0.07435778	      0.72243712	     -3.36476055	     -5.49649271	      1.40354150	      0.02449642	      4.79809352	     -5.37921861	     -7.09792458	      0.85031060	     -2.50389892	     -8.92633648	      3.43307337	      0.05991843	     10.73066224	     -3.37244206	     -7.09792458	      0.38209707	     -1.10473352	     -1.57303689	     -0.00411030	     -0.01381204	     -0.00502417	     14.17523470	      3.77527565	      0.73274976	     27.48986093	     69.46711395	     -0.00646094	     -0.01175624	     -0.00473497	     10.27932909	      5.24815862	     -1.02092050	     25.27295828	     67.53008007
      0.16949150	     -3.51329122	     -0.06191132	     -3.20153933	      0.32064307	      0.92955641	     -0.07455669	     -0.14024490	     -3.37453203	     -5.15527785	      0.57448453	      0.01002665	      4.14940259	     -5.87083053	     -7.13493368	     -0.05466259	     -2.37336354	     -8.83689549	      2.45233832	      0.04280138	      9.83090229	     -3.38232647	     -7.13493368	      0.48897214	     -1.01961873	     -2.31879964	     -0.00093745	     -0.01709493	     -0.00430590	     13.49418015	      3.11772516	     -0.09576122	     26.79729142	     68.53747375	     -0.00698727	     -0.01541341	     -0.00371532	      9.68614688	      4.65734322	     -2.22287663	     24.50829520	     66.29166164
      0.18644070	     -3.28135848	     -0.07009518	     -3.24294297	      0.32034133	      0.92992752	     -0.07396418	     -0.37402674	     -3.38391697	     -5.16081788	      0.58605674	      0.01022862	      4.20590932	     -5.59994491	     -7.22856506	     -0.29742931	     -2.37765632	     -8.91360697	      2.45310665	      0.04281479	      9.56418966	     -3.37174724	     -7.22856506	      0.24254750	     -1.01666142	     -2.42398143	     -0.00099998	     -0.01703035	     -0.00429176	     14.46613834	      3.35813549	     -0.12006828	     26.94381483	     67.02578690	     -0.00662815	     -0.01526176	     -0.00370340	     10.51469383	      4.84866594	     -2.72187611	     24.51613937	     64.52021512
